# xmcd
# 
# Track frame offsets:
#     150
#     14429
#     30176
#     49829
#     63858
#     84204
#     101937
#     119026
#     137897
#     154977
#     173099
# 
# Disc length: 2587
# 
# Revision: 0
# Processed by: cddbd v1.5.2PL0 Copyright (c) Steve Scherf et al.
# Submitted via: fre:ac v1.0.27
# 
DISCID=8d0a190b
DTITLE=Justin Hines - Days To Recall
DYEAR=2011
DGENRE=Folk
TTITLE0=Just the same
TTITLE1=Tell Me I'm Wrong
TTITLE2=Days To Recall
TTITLE3=Come Around
TTITLE4=See You Like I do
TTITLE5=Momentarily
TTITLE6=Somewhere In TheMiddle
TTITLE7=nothing Better Than Today
TTITLE8=Why Not Love me
TTITLE9=Now There's You
TTITLE10=Say  what you Will
EXTD=
EXTT0=
EXTT1=
EXTT2=
EXTT3=
EXTT4=
EXTT5=
EXTT6=
EXTT7=
EXTT8=
EXTT9=
EXTT10=
PLAYORDER=
